<svg width="60" height="60" viewBox="0 0 60 60" fill="none" xmlns="http://www.w3.org/2000/svg">
<g clip-path="url(#clip0)">
<path d="M50.55 55.9334L46.9481 43.395C46.8462 43.0416 46.8517 42.6662 46.9638 42.3158C47.0759 41.9655 47.2896 41.656 47.5781 41.4261L56.0138 34.716L53.475 24.6126L48.3412 30.9964C48.165 31.2146 47.9418 31.3907 47.688 31.5117C47.4343 31.6327 47.1564 31.6956 46.875 31.6956H37.5V27.9667H45.975L52.9125 19.3436C53.131 19.0729 53.4212 18.8681 53.7504 18.7525C54.0796 18.6369 54.4347 18.6149 54.7758 18.6892C55.1168 18.7634 55.4302 18.9308 55.6808 19.1726C55.9313 19.4144 56.109 19.7209 56.1937 20.0577L59.9437 34.9733C60.0312 35.3192 60.0169 35.6829 59.9026 36.021C59.7882 36.3591 59.5786 36.6575 59.2987 36.8806L50.8987 43.5628L54.1575 54.9098L50.55 55.9334Z" fill="#E5E5E5"/>
<path d="M43.125 10.2545C43.125 8.96382 43.5099 7.70217 44.231 6.62905C44.9521 5.55592 45.977 4.71953 47.1761 4.22562C48.3753 3.73172 49.6948 3.60249 50.9678 3.85428C52.2408 4.10607 53.4101 4.72757 54.3279 5.64019C55.2457 6.5528 55.8707 7.71555 56.1239 8.98138C56.3771 10.2472 56.2472 11.5593 55.7505 12.7517C55.2538 13.9441 54.4126 14.9632 53.3334 15.6803C52.2542 16.3973 50.9854 16.78 49.6875 16.78C47.9476 16.778 46.2796 16.0899 45.0493 14.8665C43.819 13.6432 43.127 11.9845 43.125 10.2545ZM46.875 10.2545C46.875 10.8076 47.04 11.3483 47.349 11.8082C47.658 12.2681 48.0973 12.6266 48.6112 12.8382C49.1251 13.0499 49.6906 13.1053 50.2362 12.9974C50.7818 12.8895 51.2829 12.6231 51.6762 12.232C52.0696 11.8409 52.3374 11.3426 52.446 10.8001C52.5545 10.2576 52.4988 9.69524 52.2859 9.18422C52.073 8.67319 51.7126 8.23641 51.25 7.92911C50.7875 7.62181 50.2438 7.45779 49.6875 7.45779C48.9419 7.45877 48.2271 7.75374 47.6999 8.278C47.1726 8.80226 46.876 9.51304 46.875 10.2545Z" fill="#E5E5E5"/>
<path d="M37.5075 35.4245C36.5109 35.4245 35.5552 35.0308 34.8505 34.3301C34.1459 33.6294 33.75 32.6791 33.75 31.6881V27.9742C33.75 26.9832 34.1459 26.0329 34.8505 25.3322C35.5552 24.6315 36.5109 24.2378 37.5075 24.2378H41.25V18.6445H18.75V24.2378H22.4925C23.4891 24.2378 24.4448 24.6315 25.1495 25.3322C25.8541 26.0329 26.25 26.9832 26.25 27.9742V31.6881C26.25 32.6791 25.8541 33.6294 25.1495 34.3301C24.4448 35.0308 23.4891 35.4245 22.4925 35.4245H18.75V41.0178H41.25V35.4245H37.5075Z" fill="#E5E5E5"/>
<path d="M9.45001 55.9334L13.0519 43.395C13.1535 43.0416 13.1479 42.6662 13.0359 42.316C12.9238 41.9657 12.7102 41.6561 12.4219 41.4261L3.98626 34.716L6.52688 24.6144L11.6606 30.9964C11.8366 31.2144 12.0596 31.3903 12.313 31.5113C12.5664 31.6323 12.8439 31.6953 13.125 31.6956H22.5V27.9667H14.025L7.08938 19.3436C6.87088 19.0729 6.58069 18.8681 6.2515 18.7525C5.9223 18.6369 5.56718 18.6149 5.22613 18.6892C4.88508 18.7634 4.57163 18.9308 4.32111 19.1726C4.07058 19.4144 3.89292 19.7209 3.80813 20.0577L0.0581322 34.9733C-0.0293243 35.3192 -0.0150326 35.6829 0.0993083 36.021C0.213649 36.3591 0.423229 36.6575 0.703132 36.8806L9.10313 43.5628L5.84251 54.9098L9.45001 55.9334Z" fill="#E5E5E5"/>
<path d="M10.3125 16.78C9.01456 16.78 7.74577 16.3973 6.66657 15.6803C5.58738 14.9632 4.74624 13.9441 4.24954 12.7517C3.75284 11.5593 3.62288 10.2472 3.8761 8.98138C4.12932 7.71555 4.75433 6.5528 5.67212 5.64019C6.5899 4.72757 7.75922 4.10607 9.03222 3.85428C10.3052 3.60249 11.6247 3.73172 12.8239 4.22562C14.023 4.71953 15.0479 5.55592 15.769 6.62905C16.4901 7.70217 16.875 8.96382 16.875 10.2545C16.873 11.9845 16.181 13.6432 14.9507 14.8665C13.7204 16.0899 12.0524 16.778 10.3125 16.78ZM10.3125 7.45779C9.75624 7.45779 9.21248 7.62181 8.74996 7.92911C8.28745 8.23641 7.92696 8.67319 7.71409 9.18422C7.50122 9.69524 7.44552 10.2576 7.55404 10.8001C7.66257 11.3426 7.93043 11.8409 8.32377 12.232C8.7171 12.6231 9.21824 12.8895 9.76381 12.9974C10.3094 13.1053 10.8749 13.0499 11.3888 12.8382C11.9027 12.6266 12.342 12.2681 12.651 11.8082C12.9601 11.3483 13.125 10.8076 13.125 10.2545C13.124 9.51304 12.8274 8.80226 12.3001 8.278C11.7729 7.75374 11.0581 7.45877 10.3125 7.45779Z" fill="#E5E5E5"/>
</g>
<defs>
<clipPath id="clip0">
<path d="M0 20C0 8.95432 8.95431 0 20 0H40C51.0457 0 60 8.95431 60 20V59.6623H0V20Z" fill="white"/>
</clipPath>
</defs>
</svg>
