<svg width="62" height="72" viewBox="0 0 62 72" fill="none" xmlns="http://www.w3.org/2000/svg">
<path d="M53.2812 7.875H8.71875C7.64707 7.875 6.78125 8.88047 6.78125 10.125V61.875C6.78125 63.1195 7.64707 64.125 8.71875 64.125H53.2812C54.3529 64.125 55.2188 63.1195 55.2188 61.875V10.125C55.2188 8.88047 54.3529 7.875 53.2812 7.875ZM47.6867 24.293H43.8178C40.7844 24.293 40.1971 25.9664 40.1971 28.4273V33.8484H47.4385L46.4939 42.3352H40.1971V64.125H32.6469V42.3422H26.3318V33.8484H32.6469V27.5906C32.6469 20.3273 36.4674 16.3688 42.0498 16.3688C44.726 16.3688 47.0207 16.6008 47.6928 16.7063V24.293H47.6867Z" fill="black"/>
</svg>
