<svg width="62" height="72" viewBox="0 0 62 72" fill="none" xmlns="http://www.w3.org/2000/svg">
<path d="M53.2812 7.875H8.71875C7.64707 7.875 6.78125 8.88047 6.78125 10.125V61.875C6.78125 63.1195 7.64707 64.125 8.71875 64.125H53.2812C54.3529 64.125 55.2188 63.1195 55.2188 61.875V10.125C55.2188 8.88047 54.3529 7.875 53.2812 7.875ZM33.21 43.7906C30.552 48.1359 25.2117 49.4016 21.0461 47.5383C16.8684 45.6891 13.9016 40.5633 14.2588 35.3391C14.3496 28.9477 19.4174 23.3438 24.9211 23.5617C27.5609 23.4211 30.0434 24.75 32.0656 26.6273C31.1998 27.7664 30.3098 28.8633 29.3531 29.8828C26.9252 27.9352 23.468 27.3797 21.04 29.6297C17.5646 32.4211 17.4072 39.0094 20.7494 42.0117C24.0008 45.4359 30.1463 43.7344 31.0484 38.4891C29.0141 38.4539 26.9676 38.4891 24.9332 38.4117C24.9271 36.9984 24.9211 35.5922 24.9271 34.1789C28.3299 34.1648 31.7387 34.1578 35.1475 34.193C35.3473 37.5187 34.9658 41.0484 33.21 43.7906ZM47.8926 37.7227C46.8754 37.7367 45.8582 37.7438 44.841 37.7508C44.8289 38.932 44.8228 40.1133 44.8228 41.2945H41.7773C41.7652 40.1133 41.7652 38.9391 41.7592 37.7578C40.742 37.7437 39.7248 37.7367 38.7076 37.7227V34.2C39.7248 34.1859 40.742 34.1789 41.7592 34.1789C41.7652 32.9977 41.7773 31.8164 41.7834 30.6352H44.8228L44.841 34.1789C45.8582 34.193 46.8754 34.193 47.8926 34.2V37.7227Z" fill="black"/>
</svg>
