<svg width="49" height="57" viewBox="0 0 49 57" fill="none" xmlns="http://www.w3.org/2000/svg">
<g clip-path="url(#clip0)">
<path d="M24.5 5.12662C31.0417 5.12662 31.8165 5.15552 34.3999 5.29222C36.7887 5.41892 38.086 5.88237 38.9494 6.27202C40.0929 6.78815 40.9091 7.40475 41.7664 8.40034C42.6239 9.39592 43.1546 10.3437 43.5991 11.6716C43.9346 12.6743 44.3337 14.1809 44.4428 16.9547C44.5605 19.955 44.5854 20.8548 44.5854 28.4516C44.5854 36.0486 44.5605 36.9484 44.4428 39.9485C44.3337 42.7225 43.9346 44.2289 43.5991 45.2316C43.1546 46.5595 42.6237 47.5075 41.7664 48.5031C40.9091 49.4987 40.0929 50.1153 38.9494 50.6312C38.086 51.0209 36.7887 51.4845 34.3999 51.611C31.8169 51.7479 31.0421 51.7768 24.5 51.7768C17.9577 51.7768 17.1829 51.7479 14.5999 51.611C12.2111 51.4843 10.914 51.0209 10.0506 50.6312C8.90709 50.1153 8.09074 49.4987 7.23343 48.5031C6.37612 47.5073 5.84516 46.5595 5.40091 45.2316C5.06537 44.2291 4.6661 42.7225 4.55719 39.9485C4.43929 36.9484 4.4144 36.0486 4.4144 28.4516C4.4144 20.8548 4.43929 19.955 4.55719 16.9549C4.66629 14.1809 5.06537 12.6743 5.40091 11.6716C5.84516 10.3437 6.37612 9.39592 7.23343 8.40034C8.09093 7.40453 8.90709 6.78815 10.0506 6.27202C10.9138 5.88237 12.2111 5.41892 14.5999 5.29222C17.1833 5.15552 17.9581 5.12662 24.5 5.12662ZM24.5 0C17.8461 0 17.0118 0.0326749 14.3987 0.171154C11.7908 0.309411 10.0098 0.790421 8.45154 1.49371C6.84028 2.22078 5.47403 3.19369 4.11198 4.77542C2.74993 6.35716 1.91234 7.94378 1.28625 9.81469C0.680449 11.6245 0.266438 13.6928 0.147383 16.7211C0.0281367 19.7556 0 20.7246 0 28.4516C0 36.1787 0.0281367 37.1476 0.147383 40.1821C0.266438 43.2107 0.680449 45.279 1.28625 47.0885C1.91215 48.9594 2.74993 50.5463 4.11198 52.128C5.47403 53.7098 6.84028 54.6824 8.45154 55.4095C10.01 56.113 11.7908 56.5938 14.3985 56.7321C17.0118 56.8705 17.8461 56.9032 24.5 56.9032C31.1539 56.9032 31.9882 56.8705 34.6013 56.7321C37.209 56.5938 38.99 56.113 40.5483 55.4095C42.1595 54.6827 43.5258 53.7098 44.8878 52.128C46.2499 50.5463 47.0877 48.9597 47.7137 47.0885C48.3194 45.2787 48.7336 43.2107 48.8526 40.1823C48.9719 37.1476 49 36.1787 49 28.4516C49 20.7246 48.9719 19.7556 48.8526 16.7211C48.7336 13.6928 48.3194 11.6245 47.7137 9.81492C47.0877 7.94378 46.2499 6.35716 44.8878 4.77542C43.5258 3.19369 42.1595 2.22056 40.5485 1.49371C38.99 0.790421 37.209 0.309411 34.6013 0.171154C31.9882 0.0326749 31.1539 0 24.5 0ZM24.5 13.8413C17.5516 13.8413 11.9189 20.3829 11.9189 28.4516C11.9189 36.5208 17.5516 43.062 24.5 43.062C31.4482 43.062 37.0811 36.5208 37.0811 28.4516C37.0811 20.3827 31.4482 13.8413 24.5 13.8413ZM24.5 37.9356C19.9897 37.9356 16.3333 33.6894 16.3333 28.4516C16.3333 23.2138 19.9897 18.9677 24.5 18.9677C29.0103 18.9677 32.6667 23.2138 32.6667 28.4516C32.6667 33.6894 29.0103 37.9356 24.5 37.9356ZM40.518 13.264C40.518 15.1498 39.2019 16.6782 37.578 16.6782C35.9543 16.6782 34.638 15.1498 34.638 13.264C34.638 11.3784 35.9543 9.84981 37.578 9.84981C39.2019 9.84981 40.518 11.3784 40.518 13.264Z" fill="#0A0A08"/>
</g>
<defs>
<clipPath id="clip0">
<rect width="49" height="56.9032" fill="white"/>
</clipPath>
</defs>
</svg>
