<svg width="62" height="72" viewBox="0 0 62 72" fill="none" xmlns="http://www.w3.org/2000/svg">
<path d="M53.2812 7.875H8.71875C7.64707 7.875 6.78125 8.88047 6.78125 10.125V61.875C6.78125 63.1195 7.64707 64.125 8.71875 64.125H53.2812C54.3529 64.125 55.2188 63.1195 55.2188 61.875V10.125C55.2188 8.88047 54.3529 7.875 53.2812 7.875ZM44.0357 28.2445C44.0539 28.575 44.0539 28.9195 44.0539 29.257C44.0539 39.5789 37.2848 51.4688 24.915 51.4688C21.1006 51.4688 17.5646 50.182 14.5857 47.9672C15.1307 48.0375 15.6514 48.0656 16.2084 48.0656C19.3568 48.0656 22.251 46.8281 24.5578 44.7328C21.6031 44.6625 19.1207 42.4125 18.273 39.3188C19.3084 39.4945 20.2408 39.4945 21.3064 39.1781C19.7851 38.8192 18.4176 37.8596 17.4364 36.4625C16.4552 35.0654 15.9207 33.3169 15.9238 31.5141V31.4156C16.8139 31.9992 17.8613 32.3578 18.9572 32.407C18.036 31.694 17.2804 30.728 16.7576 29.5947C16.2348 28.4614 15.9609 27.1958 15.9602 25.9102C15.9602 24.4547 16.2871 23.1258 16.8744 21.9727C18.5631 24.3867 20.6703 26.3612 23.0591 27.7676C25.4478 29.174 28.0647 29.9809 30.7396 30.1359C29.7891 24.8273 33.2039 20.5312 37.309 20.5312C39.2465 20.5312 40.9902 21.4734 42.2193 22.9922C43.7391 22.6617 45.1922 22.0008 46.4879 21.1148C45.9854 22.9219 44.9318 24.4477 43.5332 25.4109C44.8895 25.2422 46.1973 24.8062 47.4082 24.1945C46.4939 25.7555 45.3496 27.1406 44.0357 28.2445Z" fill="black"/>
</svg>
