<svg width="40" height="39" viewBox="0 0 40 39" fill="none" xmlns="http://www.w3.org/2000/svg">
<g clip-path="url(#clip0)">
<path d="M26 37.375H36.6667C37.3739 37.375 38.0522 37.1451 38.5523 36.7359C39.0524 36.3266 39.3333 35.7716 39.3333 35.1929V9.00715C39.3333 8.42841 39.0524 7.87338 38.5523 7.46415C38.0522 7.05492 37.3739 6.82501 36.6667 6.82501H26C25.2928 6.82501 24.6145 7.05492 24.1144 7.46415C23.6143 7.87338 23.3333 8.42841 23.3333 9.00715V35.1929C23.3333 35.7716 23.6143 36.3266 24.1144 36.7359C24.6145 37.1451 25.2928 37.375 26 37.375ZM26 37.375H11.3333H26ZM18 30.8286V37.375V30.8286ZM23.3333 17.7357H39.3333H23.3333ZM27.3333 30.8286H35.3333H27.3333ZM4.66667 13.3714H23.3333V30.8286H4.66667C3.95942 30.8286 3.28115 30.5987 2.78105 30.1894C2.28095 29.7802 2 29.2252 2 28.6464V15.5536C2 14.9748 2.28095 14.4198 2.78105 14.0106C3.28115 13.6013 3.95942 13.3714 4.66667 13.3714V13.3714Z" stroke="#1481BA" stroke-width="3"/>
</g>
<defs>
<clipPath id="clip0">
<rect width="40" height="39" fill="white"/>
</clipPath>
</defs>
</svg>
